<?xml version="1.0" encoding="UTF-8"?>
<svg xmlns="http://www.w3.org/2000/svg" xmlns:xlink="http://www.w3.org/1999/xlink" width="15px" height="13px" viewBox="0 0 15 13" version="1.1">
<g id="surface1">
<path style=" stroke:none;fill-rule:nonzero;fill:rgb(0%,20%,20%);fill-opacity:1;" d="M 12.839844 0.707031 C 12.828125 0.703125 12.816406 0.695312 12.804688 0.691406 C 12.816406 0.695312 12.828125 0.703125 12.835938 0.707031 Z M 12.839844 0.707031 "/>
<path style=" stroke:none;fill-rule:nonzero;fill:rgb(100%,21.960784%,0%);fill-opacity:1;" d="M 6.578125 5.558594 C 6.679688 5.597656 6.773438 5.648438 6.867188 5.707031 C 7.203125 5.925781 7.492188 6.285156 7.691406 6.703125 C 7.796875 6.914062 7.9375 7.105469 8.097656 7.269531 C 8.140625 7.296875 8.179688 7.324219 8.222656 7.347656 C 8.296875 7.390625 8.375 7.429688 8.457031 7.457031 C 8.539062 7.488281 8.621094 7.511719 8.707031 7.523438 C 8.761719 7.53125 8.820312 7.535156 8.875 7.535156 C 9.523438 7.308594 9.476562 5.976562 9.078125 5.246094 C 8.558594 4.28125 7.789062 3.683594 6.761719 3.476562 C 5.730469 3.265625 4.796875 3.527344 3.984375 4.230469 C 3.28125 4.832031 2.550781 5.402344 1.894531 6.058594 C 1.480469 6.476562 1.085938 6.921875 0.820312 7.414062 C 0.347656 8.292969 0.136719 9.027344 0.441406 10.078125 C 0.441406 10.078125 0.808594 11.042969 1.1875 11.449219 C 1.535156 11.824219 1.859375 12.164062 2.3125 12.371094 C 3.414062 12.867188 4.484375 12.792969 5.511719 12.132812 C 5.625 12.054688 5.738281 11.96875 5.839844 11.875 C 6.152344 11.601562 7.628906 10.488281 7.382812 9.945312 C 7.261719 9.675781 6.589844 9.023438 6.3125 9.023438 C 6.027344 9.023438 4.878906 10.148438 4.546875 10.324219 C 3.871094 10.683594 3.066406 10.6875 2.597656 10.066406 C 2.113281 9.421875 2.191406 8.492188 2.78125 7.972656 C 3.585938 7.257812 4.367188 6.511719 5.203125 5.839844 C 5.609375 5.515625 6.007812 5.425781 6.375 5.5 C 6.445312 5.515625 6.511719 5.535156 6.578125 5.558594 Z M 1.972656 6.625 C 1.882812 6.714844 1.792969 6.808594 1.707031 6.902344 L 1.683594 6.902344 C 1.78125 6.808594 1.875 6.714844 1.972656 6.625 C 2.085938 6.511719 2.203125 6.40625 2.320312 6.300781 L 2.328125 6.300781 C 2.210938 6.40625 2.089844 6.515625 1.972656 6.625 Z M 1.972656 6.625 "/>
<path style=" stroke:none;fill-rule:nonzero;fill:rgb(100%,21.960784%,0%);fill-opacity:1;" d="M 1.707031 6.902344 C 1.792969 6.808594 1.882812 6.714844 1.972656 6.625 C 1.875 6.714844 1.78125 6.808594 1.683594 6.902344 Z M 1.972656 6.625 C 2.089844 6.515625 2.210938 6.40625 2.328125 6.300781 L 2.320312 6.300781 C 2.203125 6.40625 2.085938 6.511719 1.972656 6.625 Z M 1.972656 6.625 "/>
<path style=" stroke:none;fill-rule:nonzero;fill:rgb(0%,53.725493%,86.666667%);fill-opacity:1;" d="M 14.582031 2.9375 C 14.582031 2.9375 14.292969 2.042969 13.871094 1.5625 C 13.5625 1.21875 13.230469 0.914062 12.835938 0.707031 C 12.828125 0.703125 12.816406 0.695312 12.804688 0.691406 C 12.773438 0.675781 12.738281 0.660156 12.707031 0.644531 C 11.605469 0.148438 10.535156 0.21875 9.511719 0.878906 C 9.394531 0.957031 9.285156 1.042969 9.179688 1.136719 C 8.867188 1.414062 7.390625 2.523438 7.636719 3.070312 C 7.757812 3.335938 8.429688 3.992188 8.707031 3.988281 C 8.992188 3.988281 10.140625 2.863281 10.472656 2.6875 C 11.152344 2.328125 11.953125 2.324219 12.421875 2.949219 C 12.90625 3.59375 12.828125 4.519531 12.238281 5.042969 C 11.433594 5.753906 10.65625 6.503906 9.816406 7.171875 C 9.496094 7.429688 9.175781 7.539062 8.875 7.535156 C 8.820312 7.535156 8.761719 7.53125 8.707031 7.523438 C 8.621094 7.511719 8.539062 7.488281 8.457031 7.457031 C 8.375 7.429688 8.296875 7.390625 8.222656 7.347656 C 8.179688 7.324219 8.140625 7.296875 8.097656 7.269531 C 7.9375 7.105469 7.796875 6.914062 7.691406 6.703125 C 7.492188 6.285156 7.203125 5.925781 6.867188 5.707031 C 6.773438 5.648438 6.679688 5.597656 6.578125 5.558594 C 6.511719 5.535156 6.445312 5.515625 6.375 5.5 C 5.792969 6.117188 5.671875 7.070312 6.074219 7.832031 C 6.59375 8.792969 7.328125 9.347656 8.351562 9.554688 L 8.414062 9.566406 C 9.386719 9.71875 10.265625 9.449219 11.039062 8.785156 C 11.738281 8.179688 12.46875 7.609375 13.125 6.953125 C 13.542969 6.539062 13.933594 6.089844 14.199219 5.597656 C 14.671875 4.71875 14.882812 3.984375 14.582031 2.9375 Z M 14.582031 2.9375 "/>
<path style=" stroke:none;fill-rule:nonzero;fill:rgb(0%,53.725493%,86.666667%);fill-opacity:1;" d="M 6.867188 5.707031 C 6.773438 5.648438 6.679688 5.597656 6.578125 5.558594 C 6.679688 5.597656 6.773438 5.648438 6.867188 5.707031 Z M 8.707031 7.523438 C 8.761719 7.53125 8.820312 7.535156 8.875 7.535156 C 8.820312 7.535156 8.761719 7.53125 8.707031 7.523438 Z M 6.578125 5.558594 C 6.511719 5.535156 6.445312 5.515625 6.375 5.5 C 6.445312 5.515625 6.511719 5.535156 6.578125 5.558594 Z M 8.097656 7.269531 C 8.140625 7.296875 8.179688 7.324219 8.222656 7.347656 C 8.296875 7.390625 8.375 7.429688 8.457031 7.457031 C 8.375 7.429688 8.296875 7.390625 8.222656 7.347656 C 8.179688 7.324219 8.140625 7.296875 8.097656 7.269531 Z M 8.097656 7.269531 "/>
</g>
</svg>
